<?xml version="1.0" encoding="UTF-8" standalone="no"?>
<!-- Created with Inkscape (http://www.inkscape.org/) -->

<svg
   xmlns:dc="http://purl.org/dc/elements/1.1/"
   xmlns:cc="http://creativecommons.org/ns#"
   xmlns:rdf="http://www.w3.org/1999/02/22-rdf-syntax-ns#"
   xmlns:svg="http://www.w3.org/2000/svg"
   xmlns="http://www.w3.org/2000/svg"
   xmlns:sodipodi="http://sodipodi.sourceforge.net/DTD/sodipodi-0.dtd"
   xmlns:inkscape="http://www.inkscape.org/namespaces/inkscape"
   width="67.5"
   height="77.5"
   viewBox="0 0 67.499997 77.499997"
   id="svg4170"
   version="1.1"
   inkscape:version="0.91 r13725"
   sodipodi:docname="globe.svg">
  <defs
     id="defs4172" />
  <sodipodi:namedview
     id="base"
     pagecolor="#ffffff"
     bordercolor="#666666"
     borderopacity="1.0"
     inkscape:pageopacity="0.0"
     inkscape:pageshadow="2"
     inkscape:zoom="1.4"
     inkscape:cx="-27.173752"
     inkscape:cy="55.77083"
     inkscape:document-units="px"
     inkscape:current-layer="layer1"
     showgrid="false"
     inkscape:window-width="2880"
     inkscape:window-height="1541"
     inkscape:window-x="-11"
     inkscape:window-y="-11"
     inkscape:window-maximized="1"
     fit-margin-top="0"
     fit-margin-left="0"
     fit-margin-right="0"
     fit-margin-bottom="10"
     units="px"
     showborder="true" />
  <metadata
     id="metadata4175">
    <rdf:RDF>
      <cc:Work
         rdf:about="">
        <dc:format>image/svg+xml</dc:format>
        <dc:type
           rdf:resource="http://purl.org/dc/dcmitype/StillImage" />
        <dc:title></dc:title>
      </cc:Work>
    </rdf:RDF>
  </metadata>
  <g
     inkscape:label="Layer 1"
     inkscape:groupmode="layer"
     id="layer1"
     transform="translate(0,-984.8622)">
    <g
       id="g4190"
       transform="translate(1316.6071,871.96428)">
      <g
         transform="matrix(1.25,0,0,-1.25,-1316.6071,146.64792)"
         id="g3814"
         inkscape:label="#globe">
        <path
           inkscape:connector-curvature="0"
           id="path3816"
           style="fill:#{{color}};fill-opacity:1;fill-rule:nonzero;stroke:none"
           d="M 0,0 C 0,14.912 12.088,27 27,27 41.913,27 54,14.912 54,0 54,-14.912 41.913,-27 27,-27 12.088,-27 0,-14.912 0,0" />
      </g>
      <g
         transform="matrix(1.25,0,0,-1.25,-1282.8564,162.32379)"
         id="globe">
        <path
           inkscape:connector-curvature="0"
           id="path3820"
           style="fill:#ffffff;fill-opacity:1;fill-rule:nonzero;stroke:none"
           d="m 0,0 c 6.999,0 12.67,5.616 12.67,12.539 0,6.927 -5.671,12.542 -12.67,12.542 -6.999,0 -12.671,-5.615 -12.671,-12.542 C -12.671,5.616 -6.999,0 0,0 m 6.746,20.992 c 0.115,-0.114 1.073,-0.911 0.843,-1.023 -0.23,-0.115 0.843,-0.608 0.843,-0.608 1.567,-0.757 2.526,-4.204 2.526,-4.849 0,-0.644 -0.194,-0.604 -0.424,-0.339 -0.229,0.262 -0.075,0.718 -0.151,1.021 -0.076,0.303 -0.193,0.457 -0.384,0.531 -0.189,0.079 -0.612,0.492 -0.726,0.911 -0.116,0.417 -0.23,-0.191 -0.345,-0.342 -0.116,-0.152 -0.266,0 -0.344,0.379 -0.076,0.378 -0.765,1.099 -1.11,1.021 -0.345,-0.074 -0.689,-1.021 -0.88,-0.984 -0.192,0.037 -1.033,0.151 -1.071,0.756 -0.039,0.606 0.458,0.648 0.803,0.759 0.344,0.114 -0.153,0.53 -0.116,0.948 0.038,0.415 0.345,0.265 0.691,0.566 0.344,0.304 -0.116,0.91 -0.116,0.91 C 6.67,20.8 6.632,21.103 6.746,20.992 M 5.33,21.447 c 0.154,0.3 0.843,-0.494 0.957,-0.72 C 6.402,20.5 6.441,19.854 6.02,19.931 5.601,20.008 5.789,20.347 5.676,20.461 5.561,20.573 5.139,19.969 4.987,20.309 4.833,20.649 5.33,21.447 5.33,21.447 M 4.297,12.92 c 0.038,0.266 0.422,1.139 0.842,1.177 0,0 0.803,0.49 0.803,1.058 0,0.569 0.652,0.987 1.187,0.987 0.534,0 1.339,-0.152 1.416,-0.796 0.077,-0.644 0.498,-0.834 0.88,-0.911 0.385,-0.073 0.996,-0.567 1.034,-0.83 0.038,-0.268 0.536,-0.378 0.65,-0.419 0.115,-0.039 0.308,-0.342 0.039,-1.893 C 10.881,9.74 9.81,6.518 7.857,4.624 c 0,0 -0.422,-0.416 -0.65,-0.189 C 6.977,4.661 7.666,5.23 7.971,5.797 8.278,6.367 8.7,8.45 8.662,9.018 8.622,9.588 7.666,9.74 6.939,9.4 6.21,9.06 4.566,10.268 4.335,11.103 4.105,11.936 4.259,12.655 4.297,12.92 m -13.342,0.399 c 0,0.697 0.048,2.233 0.095,2.512 0.045,0.28 0.188,1.769 0.798,2.002 0.611,0.232 0.423,0.838 0.33,1.304 -0.094,0.467 -0.247,1.039 0.329,1.445 0,0 2.001,1.629 4.88,2.399 0,0 0.576,-0.027 0.529,-0.537 -0.047,-0.512 0.658,-0.091 0.799,0.045 0.14,0.142 0.328,0.188 0.423,-0.045 0.093,-0.233 0.493,-0.008 0.671,0.182 0.175,0.19 0.928,0.656 1.868,0.005 0.941,-0.652 1.74,-1.862 1.553,-1.955 -0.19,-0.094 -1.01,-0.703 -1.164,-0.095 -0.153,0.606 -0.95,0.792 -1.562,0.746 -0.613,-0.048 -2.682,-0.233 -2.731,-1.025 -0.048,-0.79 1.27,-0.511 1.318,-1.304 0.047,-0.789 0.565,-0.51 0.705,0.281 0.142,0.791 0.752,1.815 1.741,1.208 C 2.523,19.884 2.76,18.998 2.808,18.209 2.853,17.416 3.04,16.949 3.04,16.53 3.04,16.111 2.713,15.507 2.43,16.16 2.147,16.81 1.96,17.835 1.633,17.462 1.3,17.092 1.865,16.207 1.255,16.111 0.643,16.022 0.219,16.579 -0.393,16.207 -1.001,15.835 -2.227,14.39 -2.508,13.97 -2.79,13.553 -3.542,14.065 -3.683,13.693 -3.826,13.319 -3.635,12.62 -3.918,12.62 c -0.282,0 -0.565,0.559 -0.47,0.933 0.095,0.373 -0.755,0.559 -1.365,0.512 -0.611,-0.046 -1.412,-1.632 -0.987,-1.816 0.425,-0.186 1.813,0.955 1.541,0.059 C -5.471,11.411 -6.271,11.411 -5.8,11.084 -5.331,10.759 -5,10.759 -5.143,10.34 -5.285,9.921 -5.707,9.596 -5.285,9.363 -4.86,9.131 -3.072,8.898 -2.319,8.48 -1.57,8.057 -0.721,7.825 -0.062,7.733 0.596,7.641 0.548,7.126 0.315,6.568 0.079,6.009 -0.109,4.754 -1.05,4.52 -1.991,4.287 -1.378,3.543 -2.131,2.985 -2.884,2.426 -1.896,1.776 -1.285,1.681 -0.674,1.59 -0.25,1.683 -0.393,1.311 -0.533,0.935 -2.178,1.261 -3.542,1.727 -4.907,2.193 -5.188,3.635 -5.424,4.333 -5.659,5.033 -7.071,5.22 -7.541,5.36 -8.01,5.499 -9.093,7.639 -8.434,7.824 c 0.659,0.186 0.469,0.421 0.705,0.746 0.236,0.328 1.223,0.837 1.506,0.883 0.283,0.048 0.283,0.887 -0.189,1.071 -0.469,0.189 -1.504,0.887 -1.598,1.539 -0.095,0.651 -0.376,2.791 -0.331,2.932 0.048,0.139 -0.47,-0.327 -0.47,-0.979 0,-0.65 -0.234,-1.396 -0.234,-0.697" />
      </g>
    </g>
  </g>
    <text x="0" y="75" font-family="sans-serif" font-size="5px" fill="#656263">{{node}}</text>
</svg>
